:version 1.10
:name ASF
:units
  mass 1
  length 1
  angle deg
:documentation
  ASF file generated by Kaydara
:root
  axis xyz
  order  tx ty tz rx ry rz
  position 0 0 0
  orientation 0 0 0
:bonedata
  begin
    id 1
    name RightUpLegDummy
    direction -1 2.30186e-007 8.31532e-007
    length 4.46685
    axis 0 0 0 xyz
  end
  begin
    id 2
    name RightUpLeg
    direction -2.30187e-007 -1 1.24343e-010
    length 16.4045
    axis -3.49089 -0.000906625 0.000286804 xyz
    dof rx ry rz
  end
  begin
    id 3
    name RightLeg
    direction -2.30181e-007 -1 -4.17157e-009
    length 17.5097
    axis 3.68512 0.0193738 -0.131023 xyz
    dof rx ry rz
  end
  begin
    id 4
    name RightFoot
    direction 8.31421e-007 -4.51202e-011 1
    length 6.49508
    axis 4.81691e-005 -0.120479 -0.188788 xyz
    dof rx ry rz
  end
  begin
    id 5
    name RightToes
    direction 0.00124746 -0.014064 0.9999
    length 3.85082
    axis 0.000481921 0.542163 -0.142578 xyz
    dof rx ry rz
  end
  begin
    id 6
    name SpineDummy
    direction 0.0717043 0.9409 -0.331007
    length 10.0032
    axis 0 0 0 xyz
  end
  begin
    id 7
    name Spine
    direction 2.30186e-007 1 4.58806e-011
    length 9.84055
    axis -0.001389 0.000121418 2.40972e-006 xyz
    dof rx ry rz
  end
  begin
    id 8
    name Spine1
    direction 0 0 0
    length 0
    axis -0.001389 0.000121451 1.30017e-006 xyz
    dof rx ry rz
  end
  begin
    id 9
    name HEadDummy
    direction -0.00347485 0.950688 -0.310128
    length 8.00997
    axis -0.001389 0.000121451 1.30017e-006 xyz
  end
  begin
    id 10
    name HEad
    direction -0.0222688 0.980941 0.193023
    length 5.12695
    axis -0.001389 0.000121451 1.30017e-006 xyz
    dof rx ry rz
  end
  begin
    id 11
    name LeftShoulder1Dummy
    direction 0.988871 0.146793 -0.0242004
    length 3.5792
    axis -0.001389 0.000121451 1.30017e-006 xyz
  end
  begin
    id 12
    name LeftShoulder1
    direction 0.993832 0.108932 0.020779
    length 4.16823
    axis -0.001389 0.000121451 1.30017e-006 xyz
    dof rx ry rz
  end
  begin
    id 13
    name LeftArm
    direction 1 3.44807e-006 -8.31404e-007
    length 9.91437
    axis -23.1894 0.134784 0.967509 xyz
    dof rx ry rz
  end
  begin
    id 14
    name LeftForeArm
    direction 1 3.44842e-006 -8.31581e-007
    length 9.08575
    axis -9.91835 -0.06569 -0.177793 xyz
    dof rx ry rz
  end
  begin
    id 15
    name LeftHand
    direction 0.992938 -0.0411636 0.11126
    length 5.32135
    axis -0.00960232 -0.00340091 0.185173 xyz
    dof rx ry rz
  end
  begin
    id 16
    name RightShoulderDummy
    direction -0.988871 0.146793 -0.0241962
    length 3.5792
    axis -0.001389 0.000121451 1.30017e-006 xyz
  end
  begin
    id 17
    name RightShoulder
    direction -0.993832 0.108933 0.0207785
    length 4.16823
    axis 0.215806 0.000203643 -0.0068026 xyz
    dof rx ry rz
  end
  begin
    id 18
    name RightArm
    direction -1 3.90912e-006 8.31284e-007
    length 9.91437
    axis -23.2009 -0.134239 -0.964101 xyz
    dof rx ry rz
  end
  begin
    id 19
    name RightForeArm
    direction -1 3.90882e-006 8.31502e-007
    length 9.08575
    axis -9.92322 0.0658061 0.178867 xyz
    dof rx ry rz
  end
  begin
    id 20
    name RightHand
    direction -0.992843 -0.0414603 0.112003
    length 5.28593
    axis -0.00960638 0.00330671 -0.185228 xyz
    dof rx ry rz
  end
  begin
    id 21
    name LeftUpLegDummy
    direction 1 -2.30186e-007 -8.31532e-007
    length 4.46685
    axis 0 0 0 xyz
  end
  begin
    id 22
    name LeftUpLeg
    direction -2.30187e-007 -1 6.00931e-010
    length 16.4045
    axis -3.48766 0.00143442 -0.000524262 xyz
    dof rx ry rz
  end
  begin
    id 23
    name LeftLeg
    direction -2.30187e-007 -1 1.6669e-009
    length 17.5097
    axis 3.68178 -0.00654042 -0.000285133 xyz
    dof rx ry rz
  end
  begin
    id 24
    name LeftFoot
    direction 8.31532e-007 -4.54478e-011 1
    length 6.49508
    axis 1.87233e-006 4.66016e-005 -8.6538e-006 xyz
    dof rx ry rz
  end
  begin
    id 25
    name LeftToes
    direction 0.00818058 -0.00485161 0.999955
    length 3.85048
    axis 1.06247e-005 4.65869e-005 -8.65513e-006 xyz
    dof rx ry rz
  end
:hierarchy
  begin
    root RightUpLegDummy SpineDummy LeftUpLegDummy
    RightUpLegDummy RightUpLeg
    RightUpLeg RightLeg
    RightLeg RightFoot
    RightFoot RightToes
    SpineDummy Spine
    Spine Spine1
    Spine1 HEadDummy LeftShoulder1Dummy RightShoulderDummy
    HEadDummy HEad
    LeftShoulder1Dummy LeftShoulder1
    LeftShoulder1 LeftArm
    LeftArm LeftForeArm
    LeftForeArm LeftHand
    RightShoulderDummy RightShoulder
    RightShoulder RightArm
    RightArm RightForeArm
    RightForeArm RightHand
    LeftUpLegDummy LeftUpLeg
    LeftUpLeg LeftLeg
    LeftLeg LeftFoot
    LeftFoot LeftToes
  end

:SAMPLES-PER-SECOND 30
:FULLY-SPECIFIED
:DEGREES
125
root  40.4132 33.5415 -65.7128 0.459416 -48.9988 0.194162
RightUpLeg  -7.62165 0.624015 0.263553
RightLeg  16.8591 -5.63288 -1.31544
RightFoot  -0.211678 -0.0196007 -0.01186
RightToes  -24.8399 -0.0904589 -0.191096
Spine  5.00501 -2.05409 0.272821
Spine1  9.25603 -3.97717 -0.0858142
HEad  12.5134 1.97654 7.02314
LeftShoulder1  0 -2.42657e-020 -4.95415e-022
LeftArm  15.7333 6.57904 -79.0083
LeftForeArm  48.3474 -70.5608 -30.1842
LeftHand  -0.0804739 -0.676019 12.5054
RightShoulder  0 2.42657e-020 1.07489e-018
RightArm  13.5942 -17.7853 65.4856
RightForeArm  150.825 76.8182 130.22
RightHand  -5.03809 15.3898 -35.715
LeftUpLeg  -5.83927 4.66612 2.42734
LeftLeg  17.849 -0.702032 -0.179304
LeftFoot  -1.99658 0.0097025 -0.0426801
LeftToes  -13.4411 8.72033e-007 1.17809e-007
126
root  40.4116 33.5412 -65.7136 0.454382 -48.9968 0.19692
RightUpLeg  -7.61941 0.610214 0.263756
RightLeg  16.8584 -5.60743 -1.30945
RightFoot  -0.213598 -0.0203472 -0.0115631
RightToes  -24.8498 -0.0898498 -0.190362
Spine  5.00039 -2.05475 0.266682
Spine1  9.248 -3.97851 -0.0964052
HEad  12.4961 1.94571 7.00111
LeftShoulder1  0 -2.42657e-020 -4.95415e-022
LeftArm  15.7173 6.62252 -79.0232
LeftForeArm  48.3288 -70.5444 -30.1537
LeftHand  -0.0808044 -0.731785 12.5248
RightShoulder  0 2.42657e-020 1.07489e-018
RightArm  13.5973 -17.8169 65.5161
RightForeArm  150.907 76.8025 130.303
RightHand  -5.02895 15.2783 -35.9026
LeftUpLeg  -5.83994 4.6193 2.42212
LeftLeg  17.8434 -0.661675 -0.169049
LeftFoot  -1.9996 0.00942718 -0.0420363
LeftToes  -13.4366 8.72033e-007 1.17809e-007
127
root  40.408 33.541 -65.7142 0.450361 -49.0097 0.198094
RightUpLeg  -7.60963 0.589779 0.267079
RightLeg  16.8597 -5.5771 -1.30173
RightFoot  -0.213735 -0.0210882 -0.0113342
RightToes  -24.8254 -0.0892445 -0.189631
Spine  4.99545 -2.05722 0.259857
Spine1  9.24035 -3.98156 -0.112155
HEad  12.5304 1.91085 6.99178
LeftShoulder1  0 -2.42657e-020 -4.95415e-022
LeftArm  15.7012 6.67662 -79.0275
LeftForeArm  48.3538 -70.5636 -30.1893
LeftHand  -0.080928 -0.694231 12.5278
RightShoulder  0 2.42657e-020 1.07489e-018
RightArm  13.5768 -17.8366 65.5343
RightForeArm  150.889 76.7922 130.357
RightHand  -5.04202 15.4523 -35.6029
LeftUpLeg  -5.84178 4.56023 2.4196
LeftLeg  17.8556 -0.601882 -0.154101
LeftFoot  -2.00024 0.00913476 -0.041227
LeftToes  -13.4577 8.72033e-007 1.17809e-007
128
root  40.4034 33.5409 -65.7148 0.440846 -48.992 0.197568
RightUpLeg  -7.5992 0.55259 0.27288
RightLeg  16.8606 -5.57309 -1.30168
RightFoot  -0.223149 -0.0218229 -0.0111821
RightToes  -24.8458 -0.0886434 -0.188904
Spine  4.99044 -2.06338 0.250379
Spine1  9.23152 -3.9926 -0.13184
HEad  12.5555 1.82515 7.04604
LeftShoulder1  0 -2.42657e-020 -4.95415e-022
LeftArm  15.72 6.71193 -78.9972
LeftForeArm  48.4071 -70.5937 -30.2456
LeftHand  -0.0840051 -0.724535 12.4645
RightShoulder  0 2.42657e-020 1.07489e-018
RightArm  13.5299 -17.8755 65.5746
RightForeArm  150.908 76.7925 130.365
RightHand  -4.96344 14.6173 -36.9881
LeftUpLeg  -5.84677 4.57792 2.42991
LeftLeg  17.8805 -0.630786 -0.161695
LeftFoot  -2.00701 0.00882499 -0.0402437
LeftToes  -13.4256 8.72033e-007 1.17809e-007
129
root  40.4002 33.5408 -65.715 0.435327 -48.9806 0.193524
RightUpLeg  -7.58376 0.539178 0.277155
RightLeg  16.859 -5.56014 -1.30453
RightFoot  -0.247258 -0.0225502 -0.0111154
RightToes  -24.7494 -0.0880473 -0.188181
Spine  4.9818 -2.07261 0.242176
Spine1  9.21607 -4.01229 -0.144345
HEad  12.5732 1.7853 7.09581
LeftShoulder1  0 -2.42657e-020 -4.95415e-022
LeftArm  15.7382 6.73702 -78.9601
LeftForeArm  48.4518 -70.6158 -30.2869
LeftHand  -0.0841193 -0.728572 12.4756
RightShoulder  0 2.42657e-020 1.07489e-018
RightArm  13.5245 -17.9394 65.617
RightForeArm  150.877 76.796 130.336
RightHand  -5.03037 15.4596 -35.509
LeftUpLeg  -5.84416 4.56686 2.43705
LeftLeg  17.8983 -0.625479 -0.165843
LeftFoot  -2.01868 0.0084976 -0.0390778
LeftToes  -13.4506 8.72033e-007 1.17809e-007
130
root  40.3983 33.5409 -65.715 0.433455 -48.9534 0.183661
RightUpLeg  -7.55212 0.54657 0.287607
RightLeg  16.8241 -5.58436 -1.30055
RightFoot  -0.22858 -0.0232691 -0.0111429
RightToes  -24.7373 -0.0874566 -0.187463
Spine  4.97173 -2.08117 0.234281
Spine1  9.19739 -4.02924 -0.159212
HEad  12.6437 1.68512 7.09876
LeftShoulder1  0 -2.42657e-020 -4.95415e-022
LeftArm  15.738 6.75782 -78.9764
LeftForeArm  48.4254 -70.5861 -30.2313
LeftHand  -0.0829122 -0.721842 12.5194
RightShoulder  0 2.42657e-020 1.07489e-018
RightArm  13.5558 -17.9858 65.6258
RightForeArm  150.92 76.7847 130.396
RightHand  -4.95311 14.5874 -36.9876
LeftUpLeg  -5.83522 4.52375 2.4446
LeftLeg  17.8927 -0.630829 -0.165426
LeftFoot  -2.00521 0.00815234 -0.0377208
LeftToes  -13.5018 8.72033e-007 1.17809e-007
131
root  40.3938 33.5412 -65.7149 0.429804 -48.9423 0.171139
RightUpLeg  -7.50912 0.530889 0.300089
RightLeg  16.7794 -5.57198 -1.29309
RightFoot  -0.222339 -0.0239787 -0.0112735
RightToes  -24.6946 -0.086872 -0.186751
Spine  4.96001 -2.08699 0.228089
Spine1  9.17714 -4.04082 -0.170033
HEad  12.6462 1.72005 7.14957
LeftShoulder1  0 -2.42657e-020 -4.95415e-022
LeftArm  15.7333 6.80785 -78.9661
LeftForeArm  48.4909 -70.6087 -30.2736
LeftHand  -0.0830118 -0.740913 12.5321
RightShoulder  0 2.42657e-020 1.07489e-018
RightArm  13.6077 -18.04 65.6214
RightForeArm  150.891 76.7677 130.485
RightHand  -5.03479 15.4774 -35.4993
LeftUpLeg  -5.82197 4.50147 2.45931
LeftLeg  17.8957 -0.620144 -0.164725
LeftFoot  -2.00519 0.00778895 -0.0361641
LeftToes  -13.4798 8.72033e-007 1.17809e-007
132
root  40.3858 33.5416 -65.7153 0.421069 -48.9467 0.150212
RightUpLeg  -7.45625 0.503579 0.320568
RightLeg  16.7423 -5.54221 -1.28242
RightFoot  -0.20922 -0.0246779 -0.0115157
RightToes  -24.7103 -0.0862941 -0.186045
Spine  4.9421 -2.08953 0.226592
Spine1  9.14501 -4.04006 -0.171795
HEad  12.6654 1.765 7.17359
LeftShoulder1  0 -2.42657e-020 -4.95415e-022
LeftArm  15.8118 6.85741 -78.9146
LeftForeArm  48.5154 -70.6618 -30.3735
LeftHand  -0.081698 -0.740272 12.578
RightShoulder  0 2.42657e-020 1.07489e-018
RightArm  13.6285 -18.0849 65.6289
RightForeArm  150.929 76.7664 130.491
RightHand  -5.02712 15.4573 -35.4923
LeftUpLeg  -5.78588 4.54018 2.48606
LeftLeg  17.901 -0.625572 -0.160616
LeftFoot  -2.01981 0.00740719 -0.0343992
LeftToes  -13.49 8.72033e-007 1.17809e-007
133
root  40.3824 33.5421 -65.7163 0.411694 -48.9538 0.13278
RightUpLeg  -7.41428 0.456654 0.335057
RightLeg  16.7095 -5.51498 -1.27282
RightFoot  -0.198127 -0.0253658 -0.0118784
RightToes  -24.6276 -0.0857234 -0.185348
Spine  4.93298 -2.09124 0.228442
Spine1  9.12881 -4.03897 -0.169418
HEad  12.6434 1.73636 7.21592
LeftShoulder1  0 -2.42657e-020 -4.95415e-022
LeftArm  15.8424 6.90252 -78.887
LeftForeArm  48.5666 -70.6874 -30.4219
LeftHand  -0.0820214 -0.724101 12.5753
RightShoulder  0 2.42657e-020 1.07489e-018
RightArm  13.6383 -18.0977 65.6069
RightForeArm  150.906 76.7549 130.551
RightHand  -5.01915 15.4884 -35.3708
LeftUpLeg  -5.76104 4.5155 2.50108
LeftLeg  17.9051 -0.606497 -0.15583
LeftFoot  -2.01477 0.00700678 -0.0324176
LeftToes  -13.5228 8.72033e-007 1.17809e-007
134
root  40.3771 33.5436 -65.7191 0.399449 -48.9537 0.0858994
RightUpLeg  -7.30601 0.518874 0.378635
RightLeg  16.6062 -5.57691 -1.27646
RightFoot  -0.15825 -0.0260413 -0.0123704
RightToes  -24.5062 -0.0851606 -0.184658
Spine  4.93162 -2.09213 0.237374
Spine1  9.12656 -4.03776 -0.149455
HEad  12.5851 1.34269 7.23349
LeftShoulder1  0 -2.42657e-020 -4.95415e-022
LeftArm  15.8919 6.9234 -78.8676
LeftForeArm  48.5782 -70.6815 -30.4106
LeftHand  -0.0822199 -0.70083 12.5739
RightShoulder  0 2.42657e-020 1.07489e-018
RightArm  13.616 -18.124 65.604
RightForeArm  150.881 76.7514 130.569
RightHand  -5.01331 15.511 -35.2824
LeftUpLeg  -5.70239 4.55812 2.55211
LeftLeg  17.8878 -0.675733 -0.173158
LeftFoot  -2.02005 0.00658748 -0.0302106
LeftToes  -13.5014 8.72033e-007 1.17809e-007
135
root  40.3738 33.5445 -65.7214 0.380748 -48.9473 0.0650094
RightUpLeg  -7.23836 0.497904 0.398925
RightLeg  16.5436 -5.55998 -1.26619
RightFoot  -0.145319 -0.0266642 -0.0136107
RightToes  -24.4292 -0.0846061 -0.183977
Spine  4.92828 -2.09221 0.241282
Spine1  9.11526 -4.03636 -0.141583
HEad  12.5769 0.792052 7.38543
LeftShoulder1  0 -2.42657e-020 -4.95415e-022
LeftArm  15.9167 6.94408 -78.8399
LeftForeArm  48.5836 -70.6965 -30.439
LeftHand  -0.0823676 -0.734167 12.5865
RightShoulder  0 2.42657e-020 1.07489e-018
RightArm  13.6739 -18.15 65.5778
RightForeArm  150.905 76.7328 130.665
RightHand  -5.00599 15.4754 -35.3113
LeftUpLeg  -5.67872 4.57893 2.58107
LeftLeg  17.9111 -0.700231 -0.179666
LeftFoot  -2.02144 0.00614902 -0.0277697
LeftToes  -13.4741 8.72033e-007 1.17809e-007
136
root  40.3709 33.5451 -65.7267 0.360728 -48.9391 0.03788
RightUpLeg  -7.16943 0.484817 0.423975
RightLeg  16.4911 -5.56659 -1.26232
RightFoot  -0.1323 -0.0271469 -0.0169534
RightToes  -24.3778 -0.0840607 -0.183306
Spine  4.92586 -2.09148 0.244583
Spine1  9.11721 -4.0347 -0.135499
HEad  12.3638 0.183118 7.66056
LeftShoulder1  0 -2.42657e-020 -4.95415e-022
LeftArm  15.9523 6.95286 -78.8115
LeftForeArm  48.6327 -70.7234 -30.49
LeftHand  -0.0823108 -0.708685 12.5907
RightShoulder  0 2.42657e-020 1.07489e-018
RightArm  13.6954 -18.1849 65.5698
RightForeArm  150.99 76.7158 130.753
RightHand  -5.00087 15.4582 -35.3148
LeftUpLeg  -5.66731 4.56276 2.61219
LeftLeg  17.9589 -0.712252 -0.183352
LeftFoot  -2.0312 0.00569116 -0.0250865
LeftToes  -13.5229 8.72033e-007 1.17809e-007
137
root  40.3695 33.5458 -65.7331 0.34969 -48.9252 0.00570688
RightUpLeg  -7.10295 0.441188 0.452062
RightLeg  16.4217 -5.5324 -1.24755
RightFoot  -0.103688 -0.0275734 -0.0210846
RightToes  -24.3134 -0.0835249 -0.182646
Spine  4.92819 -2.08994 0.247804
Spine1  9.12267 -4.03242 -0.128267
HEad  12.2399 -0.310805 7.87597
LeftShoulder1  0 -2.42657e-020 -4.95415e-022
LeftArm  15.9684 6.96648 -78.7878
LeftForeArm  48.6952 -70.7412 -30.5238
LeftHand  -0.0822051 -0.721586 12.6044
RightShoulder  0 2.42657e-020 1.07489e-018
RightArm  13.7182 -18.2064 65.5652
RightForeArm  150.983 76.721 130.726
RightHand  -5.02182 15.4994 -35.3646
LeftUpLeg  -5.65493 4.55155 2.6521
LeftLeg  17.9886 -0.734101 -0.18932
LeftFoot  -2.02821 0.00521364 -0.0221522
LeftToes  -13.53 8.72033e-007 1.17809e-007
138
root  40.3579 33.5468 -65.7383 0.32663 -48.8887 -0.0991224
RightUpLeg  -6.91854 0.521677 0.547105
RightLeg  16.2936 -5.65329 -1.26141
RightFoot  -0.0427909 -0.0280448 -0.024431
RightToes  -24.2955 -0.0829994 -0.181997
Spine  4.94636 -2.08761 0.261535
Spine1  9.15802 -4.04465 -0.102436
HEad  12.2113 -0.595011 8.04273
LeftShoulder1  0 -2.42657e-020 -4.95415e-022
LeftArm  15.9767 6.98418 -78.7646
LeftForeArm  48.7003 -70.731 -30.5044
LeftHand  -0.0802154 -0.737084 12.6694
RightShoulder  0 2.42657e-020 1.07489e-018
RightArm  13.7642 -18.2352 65.5598
RightForeArm  151.063 76.7217 130.723
RightHand  -5.01975 15.458 -35.4415
LeftUpLeg  -5.56262 4.66816 2.76664
LeftLeg  18.0118 -0.903242 -0.232844
LeftFoot  -2.05636 0.00453639 -0.0161643
LeftToes  -13.5367 8.72033e-007 1.17809e-007
139
root  40.356 33.5485 -65.7454 0.307982 -48.8891 -0.09733
RightUpLeg  -6.8843 0.442562 0.55082
RightLeg  16.2496 -5.58054 -1.24073
RightFoot  -0.0267031 -0.0286449 -0.0256835
RightToes  -24.2752 -0.0824845 -0.18136
Spine  4.93525 -2.08207 0.259797
Spine1  9.13935 -4.03413 -0.102433
HEad  12.2359 -0.574532 8.24425
LeftShoulder1  0 -2.42657e-020 -4.95415e-022
LeftArm  16.009 7.01968 -78.7158
LeftForeArm  48.7602 -70.7718 -30.582
LeftHand  -0.0811787 -0.74463 12.6518
RightShoulder  0 2.42657e-020 1.07489e-018
RightArm  13.8303 -18.2883 65.5496
RightForeArm  151.246 76.6885 130.893
RightHand  -5.01198 15.4106 -35.4938
LeftUpLeg  -5.52422 4.66732 2.77778
LeftLeg  17.9611 -0.911807 -0.234165
LeftFoot  -2.01543 0.00406815 -0.01347
LeftToes  -13.5993 8.72033e-007 1.17809e-007
